<svg xmlns="http://www.w3.org/2000/svg" width="840" height="268" viewBox="0 0 840 268" font-family="system-ui,-apple-system,Segoe UI,sans-serif">
<rect width="840" height="268" rx="8" fill="#1a1a19"/>
<text x="56" y="34" font-size="11" font-weight="600" letter-spacing="1.6" fill="#898781">TOTAL INSTALLS</text>
<text x="56" y="68"><tspan font-size="32" font-weight="700" fill="#ffffff">760</tspan><tspan dx="12" font-size="14" font-weight="600" fill="#3987e5">productivity granted!!</tspan></text>
<line x1="56" y1="234.0" x2="800" y2="234.0" stroke="#383835" stroke-width="1"/>
<text x="48" y="238.0" font-size="10" text-anchor="end" fill="#898781" font-variant-numeric="tabular-nums">0</text>
<line x1="56" y1="159.0" x2="800" y2="159.0" stroke="#2c2c2a" stroke-width="1"/>
<text x="48" y="163.0" font-size="10" text-anchor="end" fill="#898781" font-variant-numeric="tabular-nums">400</text>
<line x1="56" y1="84.0" x2="800" y2="84.0" stroke="#2c2c2a" stroke-width="1"/>
<text x="48" y="88.0" font-size="10" text-anchor="end" fill="#898781" font-variant-numeric="tabular-nums">800</text>
<path d="M56.0,229.9 L83.6,225.6 L111.1,220.5 L138.7,215.8 L166.2,210.8 L193.8,205.7 L221.3,201.2 L248.9,196.9 L276.4,195.2 L304.0,193.7 L331.6,189.4 L359.1,184.9 L386.7,180.2 L414.2,174.0 L441.8,165.0 L469.3,159.6 L496.9,154.3 L524.4,148.7 L552.0,143.8 L579.6,138.8 L607.1,132.0 L634.7,126.9 L662.2,121.1 L689.8,114.8 L717.3,108.4 L744.9,103.3 L772.4,96.8 L800.0,91.5 L800.0,234.0 L56.0,234.0 Z" fill="#3987e5" fill-opacity="0.13"/>
<path d="M56.0,229.9 L83.6,225.6 L111.1,220.5 L138.7,215.8 L166.2,210.8 L193.8,205.7 L221.3,201.2 L248.9,196.9 L276.4,195.2 L304.0,193.7 L331.6,189.4 L359.1,184.9 L386.7,180.2 L414.2,174.0 L441.8,165.0 L469.3,159.6 L496.9,154.3 L524.4,148.7 L552.0,143.8 L579.6,138.8 L607.1,132.0 L634.7,126.9 L662.2,121.1 L689.8,114.8 L717.3,108.4 L744.9,103.3 L772.4,96.8 L800.0,91.5" fill="none" stroke="#3987e5" stroke-width="2" stroke-linejoin="round" stroke-linecap="round"/>
<circle cx="800.0" cy="91.5" r="3.5" fill="#3987e5" stroke="#1a1a19" stroke-width="2"/>
<text x="56" y="254" font-size="10" text-anchor="start" fill="#898781">2026-08-19</text>
<text x="800" y="254" font-size="10" text-anchor="end" fill="#898781">2026-09-15</text>
</svg>
