<svg xmlns="http://www.w3.org/2000/svg" width="840" height="268" viewBox="0 0 840 268" font-family="system-ui,-apple-system,Segoe UI,sans-serif">
<rect width="840" height="268" rx="8" fill="#fcfcfb"/>
<text x="56" y="34" font-size="11" font-weight="600" letter-spacing="1.6" fill="#898781">TOTAL INSTALLS</text>
<text x="56" y="68"><tspan font-size="32" font-weight="700" fill="#0b0b0b">1,472</tspan><tspan dx="12" font-size="14" font-weight="600" fill="#2a78d6">productivity granted!!</tspan></text>
<line x1="56" y1="234.0" x2="800" y2="234.0" stroke="#c3c2b7" stroke-width="1"/>
<text x="48" y="238.0" font-size="10" text-anchor="end" fill="#898781" font-variant-numeric="tabular-nums">0</text>
<line x1="56" y1="159.0" x2="800" y2="159.0" stroke="#e1e0d9" stroke-width="1"/>
<text x="48" y="163.0" font-size="10" text-anchor="end" fill="#898781" font-variant-numeric="tabular-nums">1000</text>
<line x1="56" y1="84.0" x2="800" y2="84.0" stroke="#e1e0d9" stroke-width="1"/>
<text x="48" y="88.0" font-size="10" text-anchor="end" fill="#898781" font-variant-numeric="tabular-nums">2000</text>
<path d="M56.0,232.3 L71.2,230.6 L86.4,228.6 L101.6,226.7 L116.7,224.7 L131.9,222.7 L147.1,220.9 L162.3,219.2 L177.5,218.5 L192.7,217.9 L207.8,216.2 L223.0,214.3 L238.2,212.5 L253.4,210.0 L268.6,206.4 L283.8,204.2 L298.9,202.1 L314.1,199.9 L329.3,197.9 L344.5,195.9 L359.7,193.2 L374.9,191.2 L390.0,188.8 L405.2,186.3 L420.4,183.8 L435.6,181.7 L450.8,179.1 L466.0,177.0 L481.1,174.8 L496.3,172.7 L511.5,169.9 L526.7,166.9 L541.9,164.2 L557.1,161.7 L572.2,159.4 L587.4,157.3 L602.6,154.7 L617.8,152.8 L633.0,150.8 L648.2,148.8 L663.3,146.8 L678.5,144.8 L693.7,142.7 L708.9,139.7 L724.1,137.6 L739.3,134.6 L754.4,132.9 L769.6,129.8 L784.8,126.5 L800.0,123.6 L800.0,234.0 L56.0,234.0 Z" fill="#2a78d6" fill-opacity="0.13"/>
<path d="M56.0,232.3 L71.2,230.6 L86.4,228.6 L101.6,226.7 L116.7,224.7 L131.9,222.7 L147.1,220.9 L162.3,219.2 L177.5,218.5 L192.7,217.9 L207.8,216.2 L223.0,214.3 L238.2,212.5 L253.4,210.0 L268.6,206.4 L283.8,204.2 L298.9,202.1 L314.1,199.9 L329.3,197.9 L344.5,195.9 L359.7,193.2 L374.9,191.2 L390.0,188.8 L405.2,186.3 L420.4,183.8 L435.6,181.7 L450.8,179.1 L466.0,177.0 L481.1,174.8 L496.3,172.7 L511.5,169.9 L526.7,166.9 L541.9,164.2 L557.1,161.7 L572.2,159.4 L587.4,157.3 L602.6,154.7 L617.8,152.8 L633.0,150.8 L648.2,148.8 L663.3,146.8 L678.5,144.8 L693.7,142.7 L708.9,139.7 L724.1,137.6 L739.3,134.6 L754.4,132.9 L769.6,129.8 L784.8,126.5 L800.0,123.6" fill="none" stroke="#2a78d6" stroke-width="2" stroke-linejoin="round" stroke-linecap="round"/>
<circle cx="800.0" cy="123.6" r="3.5" fill="#2a78d6" stroke="#fcfcfb" stroke-width="2"/>
<text x="56" y="254" font-size="10" text-anchor="start" fill="#898781">2026-08-19</text>
<text x="800" y="254" font-size="10" text-anchor="end" fill="#898781">2026-10-07</text>
</svg>
