<svg xmlns="http://www.w3.org/2000/svg" width="840" height="268" viewBox="0 0 840 268" font-family="system-ui,-apple-system,Segoe UI,sans-serif">
<rect width="840" height="268" rx="8" fill="#1a1a19"/>
<text x="56" y="34" font-size="11" font-weight="600" letter-spacing="1.6" fill="#898781">TOTAL INSTALLS</text>
<text x="56" y="68"><tspan font-size="32" font-weight="700" fill="#ffffff">732</tspan><tspan dx="12" font-size="14" font-weight="600" fill="#3987e5">productivity granted!!</tspan></text>
<line x1="56" y1="234.0" x2="800" y2="234.0" stroke="#383835" stroke-width="1"/>
<text x="48" y="238.0" font-size="10" text-anchor="end" fill="#898781" font-variant-numeric="tabular-nums">0</text>
<line x1="56" y1="159.0" x2="800" y2="159.0" stroke="#2c2c2a" stroke-width="1"/>
<text x="48" y="163.0" font-size="10" text-anchor="end" fill="#898781" font-variant-numeric="tabular-nums">400</text>
<line x1="56" y1="84.0" x2="800" y2="84.0" stroke="#2c2c2a" stroke-width="1"/>
<text x="48" y="88.0" font-size="10" text-anchor="end" fill="#898781" font-variant-numeric="tabular-nums">800</text>
<path d="M56.0,229.9 L84.6,225.6 L113.2,220.5 L141.8,215.8 L170.5,210.8 L199.1,205.7 L227.7,201.2 L256.3,196.9 L284.9,195.2 L313.5,193.7 L342.2,189.4 L370.8,184.9 L399.4,180.2 L428.0,174.0 L456.6,165.0 L485.2,159.6 L513.8,154.3 L542.5,148.7 L571.1,143.8 L599.7,138.8 L628.3,132.0 L656.9,126.9 L685.5,121.1 L714.2,114.8 L742.8,108.4 L771.4,103.3 L800.0,96.8 L800.0,234.0 L56.0,234.0 Z" fill="#3987e5" fill-opacity="0.13"/>
<path d="M56.0,229.9 L84.6,225.6 L113.2,220.5 L141.8,215.8 L170.5,210.8 L199.1,205.7 L227.7,201.2 L256.3,196.9 L284.9,195.2 L313.5,193.7 L342.2,189.4 L370.8,184.9 L399.4,180.2 L428.0,174.0 L456.6,165.0 L485.2,159.6 L513.8,154.3 L542.5,148.7 L571.1,143.8 L599.7,138.8 L628.3,132.0 L656.9,126.9 L685.5,121.1 L714.2,114.8 L742.8,108.4 L771.4,103.3 L800.0,96.8" fill="none" stroke="#3987e5" stroke-width="2" stroke-linejoin="round" stroke-linecap="round"/>
<circle cx="800.0" cy="96.8" r="3.5" fill="#3987e5" stroke="#1a1a19" stroke-width="2"/>
<text x="56" y="254" font-size="10" text-anchor="start" fill="#898781">2026-08-19</text>
<text x="800" y="254" font-size="10" text-anchor="end" fill="#898781">2026-09-14</text>
</svg>
