<svg xmlns="http://www.w3.org/2000/svg" width="840" height="268" viewBox="0 0 840 268" font-family="system-ui,-apple-system,Segoe UI,sans-serif">
<rect width="840" height="268" rx="8" fill="#fcfcfb"/>
<text x="56" y="34" font-size="11" font-weight="600" letter-spacing="1.6" fill="#898781">TOTAL INSTALLS</text>
<text x="56" y="68"><tspan font-size="32" font-weight="700" fill="#0b0b0b">425</tspan><tspan dx="12" font-size="14" font-weight="600" fill="#2a78d6">productivity granted!!</tspan></text>
<line x1="56" y1="234.0" x2="800" y2="234.0" stroke="#c3c2b7" stroke-width="1"/>
<text x="48" y="238.0" font-size="10" text-anchor="end" fill="#898781" font-variant-numeric="tabular-nums">0</text>
<line x1="56" y1="159.0" x2="800" y2="159.0" stroke="#e1e0d9" stroke-width="1"/>
<text x="48" y="163.0" font-size="10" text-anchor="end" fill="#898781" font-variant-numeric="tabular-nums">300</text>
<line x1="56" y1="84.0" x2="800" y2="84.0" stroke="#e1e0d9" stroke-width="1"/>
<text x="48" y="88.0" font-size="10" text-anchor="end" fill="#898781" font-variant-numeric="tabular-nums">600</text>
<path d="M56.0,228.5 L102.5,222.8 L149.0,216.0 L195.5,209.8 L242.0,203.0 L288.5,196.2 L335.0,190.2 L381.5,184.5 L428.0,182.2 L474.5,180.2 L521.0,174.5 L567.5,168.5 L614.0,162.2 L660.5,154.0 L707.0,142.0 L753.5,134.8 L800.0,127.8 L800.0,234.0 L56.0,234.0 Z" fill="#2a78d6" fill-opacity="0.13"/>
<path d="M56.0,228.5 L102.5,222.8 L149.0,216.0 L195.5,209.8 L242.0,203.0 L288.5,196.2 L335.0,190.2 L381.5,184.5 L428.0,182.2 L474.5,180.2 L521.0,174.5 L567.5,168.5 L614.0,162.2 L660.5,154.0 L707.0,142.0 L753.5,134.8 L800.0,127.8" fill="none" stroke="#2a78d6" stroke-width="2" stroke-linejoin="round" stroke-linecap="round"/>
<circle cx="800.0" cy="127.8" r="3.5" fill="#2a78d6" stroke="#fcfcfb" stroke-width="2"/>
<text x="56" y="254" font-size="10" text-anchor="start" fill="#898781">2026-08-19</text>
<text x="800" y="254" font-size="10" text-anchor="end" fill="#898781">2026-09-04</text>
</svg>
